<svg xmlns="http://www.w3.org/2000/svg" xmlns:xlink="http://www.w3.org/1999/xlink" viewBox="0 0 612.12 308.65"><defs><style>.cls-1{isolation:isolate;}.cls-2{fill:url(#radial-gradient);}.cls-3{fill:url(#radial-gradient-2);}.cls-4{fill:url(#radial-gradient-3);}.cls-5{fill:url(#radial-gradient-4);}.cls-6{fill:url(#radial-gradient-5);}.cls-7{fill:url(#radial-gradient-6);}.cls-8{fill:url(#radial-gradient-7);}.cls-14,.cls-16,.cls-9{fill:#fff;}.cls-10{fill:url(#radial-gradient-8);}.cls-11{fill:url(#radial-gradient-9);}.cls-12{fill:url(#radial-gradient-10);}.cls-13,.cls-14,.cls-16{mix-blend-mode:overlay;}.cls-13{fill:url(#radial-gradient-11);}.cls-14{opacity:0.38;}.cls-15{fill:url(#radial-gradient-12);}.cls-16{opacity:0.4;}.cls-17{fill:url(#radial-gradient-13);}.cls-18{fill:#3b2314;}.cls-19{fill:#e6e7e8;}.cls-20{fill:url(#radial-gradient-14);}.cls-21{fill:#00497b;}.cls-22{fill:url(#linear-gradient);}.cls-23{fill:url(#linear-gradient-2);}.cls-24{fill:#22a4d1;}</style><radialGradient id="radial-gradient" cx="-62.38" cy="330.8" r="348.07" gradientUnits="userSpaceOnUse"><stop offset="0.24" stop-color="#c75427"/><stop offset="0.6" stop-color="#e8a731"/><stop offset="0.99" stop-color="#f2e07c"/></radialGradient><radialGradient id="radial-gradient-2" cx="159.8" cy="185.1" r="272.17" gradientTransform="matrix(0.74, -0.66, 0.5, 0.58, -74.47, 177.23)" gradientUnits="userSpaceOnUse"><stop offset="0.07" stop-color="#00497b"/><stop offset="0.6" stop-color="#35aed8"/><stop offset="0.99" stop-color="#9bcce1"/></radialGradient><radialGradient id="radial-gradient-3" cx="183.83" cy="335.27" r="130.36" gradientTransform="matrix(0.44, -0.9, 0.68, 0.34, -148.98, 378.57)" gradientUnits="userSpaceOnUse"><stop offset="0.01" stop-color="#9bcce1"/><stop offset="0.4" stop-color="#35aed8"/><stop offset="0.67" stop-color="#00497b"/></radialGradient><radialGradient id="radial-gradient-4" cx="183.83" cy="335.27" r="130.36" xlink:href="#radial-gradient-3"/><radialGradient id="radial-gradient-5" cx="127.3" cy="151.9" r="100.26" gradientTransform="matrix(0.98, 0.01, -0.01, 1, -19.93, -7.86)" xlink:href="#radial-gradient"/><radialGradient id="radial-gradient-6" cx="121.58" cy="186.35" r="92.32" gradientTransform="matrix(0.98, 0.01, -0.01, 1, -19.93, -7.86)" gradientUnits="userSpaceOnUse"><stop offset="0.33" stop-color="#00497b"/><stop offset="0.6" stop-color="#35aed8"/><stop offset="0.98" stop-color="#9bcce1" stop-opacity="0.3"/></radialGradient><radialGradient id="radial-gradient-7" cx="125.13" cy="258.08" r="180.22" gradientTransform="matrix(0.98, 0.01, -0.01, 1, -19.93, -7.86)" gradientUnits="userSpaceOnUse"><stop offset="0.08" stop-color="#c75427"/><stop offset="0.46" stop-color="#e8a731"/><stop offset="0.81" stop-color="#f2e07c"/></radialGradient><radialGradient id="radial-gradient-8" cx="233.63" cy="137.59" r="264.07" gradientTransform="matrix(0.98, 0.01, -0.01, 1, -19.93, -7.86)" xlink:href="#radial-gradient"/><radialGradient id="radial-gradient-9" cx="136.53" cy="101.58" r="68.11" gradientTransform="matrix(0.98, 0.01, -0.01, 1, -19.93, -7.86)" xlink:href="#radial-gradient-2"/><radialGradient id="radial-gradient-10" cx="697.69" cy="-336.41" r="264.07" gradientTransform="matrix(0.94, 0.3, -0.3, 0.95, -521.29, 230.8)" xlink:href="#radial-gradient"/><radialGradient id="radial-gradient-11" cx="45.91" cy="130.09" r="116.94" gradientTransform="matrix(0.98, 0.01, -0.01, 1, -19.93, -7.86)" gradientUnits="userSpaceOnUse"><stop offset="0" stop-color="#ffebb5"/><stop offset="1" stop-color="#fff" stop-opacity="0.1"/></radialGradient><radialGradient id="radial-gradient-12" cx="158.3" cy="109.78" r="141.64" gradientTransform="matrix(0.98, 0.01, -0.01, 1, -19.93, -7.86)" gradientUnits="userSpaceOnUse"><stop offset="0.09" stop-color="#00497b"/><stop offset="0.6" stop-color="#35aed8"/><stop offset="0.99" stop-color="#9bcce1"/></radialGradient><radialGradient id="radial-gradient-13" cx="148.25" cy="93.81" r="128.35" gradientTransform="translate(-4.19 -7.78) rotate(0.29)" gradientUnits="userSpaceOnUse"><stop offset="0" stop-color="#f47f22"/><stop offset="0.39" stop-color="#00497b"/><stop offset="0.6" stop-color="#35aed8"/><stop offset="0.99" stop-color="#9bcce1"/></radialGradient><radialGradient id="radial-gradient-14" cx="211.59" cy="219.46" r="628.92" gradientUnits="userSpaceOnUse"><stop offset="0.25" stop-color="#00497b"/><stop offset="0.6" stop-color="#35aed8"/><stop offset="0.99" stop-color="#9bcce1"/></radialGradient><linearGradient id="linear-gradient" x1="335.82" y1="257.03" x2="366.55" y2="257.03" gradientUnits="userSpaceOnUse"><stop offset="0" stop-color="#00497b"/><stop offset="0.65" stop-color="#0c6b9c"/><stop offset="1" stop-color="#1178a8"/></linearGradient><linearGradient id="linear-gradient-2" x1="372.23" y1="257.03" x2="409.16" y2="257.03" gradientUnits="userSpaceOnUse"><stop offset="0" stop-color="#1178a8"/><stop offset="0.29" stop-color="#137dac"/><stop offset="0.62" stop-color="#198bb9"/><stop offset="0.97" stop-color="#22a1cf"/><stop offset="1" stop-color="#23a4d1"/></linearGradient></defs><g class="cls-1"><g id="Layer_2" data-name="Layer 2"><g id="Layer_1-2" data-name="Layer 1"><path class="cls-2" d="M173.7,238.94a41,41,0,0,0-.58-7.13,14.87,14.87,0,0,0-.26-1.51,41.07,41.07,0,0,0-4-11.18,39.9,39.9,0,0,0-4.35-6.73,41,41,0,0,0-23.17-14.58v0a40.08,40.08,0,0,0-8-.95c-.2,0-.43,0-.65,0s-.47,0-.71,0a39.92,39.92,0,0,0-18.79,4.87,40.79,40.79,0,0,0-11.63,9.39,41.91,41.91,0,0,0-8.2,14.63,43.63,43.63,0,0,0-1.71,7.86c-.1.76-.21,1.52-.27,2.3a25.6,25.6,0,0,1,6.68-13.62c.17-.19.36-.38.54-.57l.59-.57a26.85,26.85,0,0,1,9.17-5.4,25.07,25.07,0,0,1,10.12-1.28h0a24.47,24.47,0,0,1,3,.45c.46.1.93.24,1.4.37l1.12.31c.49.18,1,.35,1.42.54s.69.27,1,.43.9.44,1.33.67.69.37,1,.56.73.44,1.07.67c.5.33,1,.67,1.45,1l.41.32a24.56,24.56,0,0,1,7.92,11.91,26.23,26.23,0,0,1,.17,14.83,27.82,27.82,0,0,1-1.84,4.71,30.29,30.29,0,0,1-9,10.66c-9.46,7.06-22.75,9.1-33.91,6.25a40.55,40.55,0,0,1-18.77-10.88,1.08,1.08,0,0,0-.17-.19c-.71-.71-1.38-1.46-2-2.22,0,0,0,0,0-.06-.54-.65-1.07-1.32-1.57-2l-.72-1c-.38-.52-.73-1-1.08-1.61-.5-.8-1-1.62-1.43-2.46-.08-.14-.17-.27-.24-.42a42.91,42.91,0,0,1-4.74-15.65,36.85,36.85,0,0,1-.18-3.79,42.32,42.32,0,0,1,3.72-17.63c.51-1,1-2,1.55-3A108.4,108.4,0,0,1,79.26,192,106.07,106.07,0,0,1,90,180c2.07-2,4.23-3.92,6.47-5.76s4.76-3.73,7.26-5.45l.45-.32c.47-.32,1-.64,1.43-.94s.82-.55,1.24-.8c.82-.53,1.67-1,2.51-1.55,0,0,0,0,.08,0q3.84-2.53,7.54-5.28a172.57,172.57,0,0,0,26.06-23.53c1.19-1.3,2.3-2.67,3.45-4a43.13,43.13,0,0,1-8-23.43c-.82-21.17,18.58-39.1,38.73-39C191.93,70,204,78.3,210.43,90.3A171.15,171.15,0,0,0,253.54,69a67.49,67.49,0,0,0-29.66-38.88c0-.52,0-1-.08-1.55s-.13-1.2-.22-1.79A25.31,25.31,0,0,0,198.87,5.42,25,25,0,0,0,188.6,7.58a19.87,19.87,0,0,0-2,1.06A166.83,166.83,0,0,0,155.9,0,173.07,173.07,0,0,1,159,19.87a170.44,170.44,0,0,0-52.33,12.91,166.42,166.42,0,0,0-19-6.69q-1.5,8.49-2.2,17.25A165,165,0,0,0,65.73,40.1q-.8,8.16-.85,16.53c0,.38,0,.74,0,1.12-3.18-.19-6.38-.3-9.62-.31s-6.71.06-10,.25c0,1,0,2.08-.05,3.1,0,5,.16,10,.54,14.89a162.76,162.76,0,0,0-17.35,2.44,173.82,173.82,0,0,0,2,17.81,2.12,2.12,0,0,0-.26.38,165.39,165.39,0,0,0-16,4.89h0a170.94,170.94,0,0,0,3.26,17.36,132.63,132.63,0,0,0-12.09,5.62,130.33,130.33,0,0,0,3.78,15.17C3.31,155,.36,175,.09,192.53c0,.69,0,1.37,0,2.06s0,1.47,0,2.21v.47c0,.52,0,1,0,1.57a111.82,111.82,0,0,0,.84,14.37c.05.43.11.87.18,1.31a.47.47,0,0,0,0,.17,109,109,0,0,0,62.7,84.53,105.21,105.21,0,0,0,41.2,9.36c.61,0,1.25,0,1.87,0h1.87a66.53,66.53,0,0,0,59.51-40.75,69.29,69.29,0,0,0,5.46-26.53v-.38c0-.44,0-.86,0-1.3v-.08C173.7,239.36,173.7,239.15,173.7,238.94Z"/><path class="cls-3" d="M173.67,239a42.48,42.48,0,0,0-.84-8.64,41.81,41.81,0,0,0-8.3-17.91,41,41,0,0,0-23.17-14.58v0a40.08,40.08,0,0,0-8-1c-.2,0-.43,0-.65,0-21.12-.11-38.54,15.95-41.05,36.75-.09.77-.21,1.53-.27,2.32A25.74,25.74,0,0,1,98,222.29c.19-.18.37-.38.56-.56l.59-.56a25.83,25.83,0,0,1,19.28-6.69h0a24.16,24.16,0,0,1,3,.44c.47.1.93.25,1.4.38s.75.19,1.11.31,1,.36,1.44.55.68.27,1,.42.89.43,1.33.66.69.37,1,.57.72.44,1.06.67c.5.33,1,.68,1.45,1l.41.31c8.94,7.32,11.77,20.48,6.26,31.47-7.7,15.33-27.38,20.88-43,16.9a40.32,40.32,0,0,1-18.75-10.89l-.18-.18c-.7-.72-1.37-1.46-2-2.23l0-.06c-.54-.65-1-1.32-1.56-2l-.72-1q-.56-.79-1.08-1.62c-.5-.8-1-1.62-1.43-2.46l-.24-.42a42,42,0,0,1-1.2-37.05,109.1,109.1,0,0,1,28.63-36c2.48-2.05,5.06-4,7.71-5.78l1.42-.94c.42-.28.83-.55,1.25-.79.82-.53,1.67-1,2.51-1.55,0,0,0,0,.08,0A175.15,175.15,0,0,0,143,136.36c.67-.74,1.29-1.53,1.95-2.28,1-11.69,8-22,17.61-28.36a131.88,131.88,0,0,0-13.87-7.15c19.32,1.48,40.43-2.69,47.14-4.17a170.65,170.65,0,0,0,57.65-25.35,67.55,67.55,0,0,0-29.66-38.88,13.13,13.13,0,0,0-.09-1.54q-.07-.91-.21-1.8a25.07,25.07,0,0,0-35-19.21,19.87,19.87,0,0,0-2,1.06A166.83,166.83,0,0,0,155.87,0,175.64,175.64,0,0,1,159,19.91,171.09,171.09,0,0,0,56.07,65.77a177,177,0,0,0-56,126.8c0,.69,0,1.37,0,2.06s0,1.47,0,2.21v.48c0,.51,0,1,0,1.56l1,15.68a.47.47,0,0,0,0,.17,109,109,0,0,0,62.7,84.53,104.85,104.85,0,0,0,41.19,9.36c.62,0,1.26,0,1.88,0h1.87c35.87-.83,64.78-30.55,65-67.28,0-.57,0-1.1,0-1.68v-.07Q173.67,239.3,173.67,239Z"/><path class="cls-4" d="M98.59,221.73l.59-.56a25.85,25.85,0,0,1,19.28-6.69h0a24.16,24.16,0,0,1,3,.44c.47.1.93.25,1.4.38s.75.19,1.11.31,1,.36,1.44.55.68.27,1,.42l1.19.59a24.32,24.32,0,0,0-2.15-2c-.14-.1-.28-.2-.41-.31-.47-.36-1-.71-1.45-1-.35-.23-.7-.45-1.06-.66s-.69-.4-1-.58-.87-.45-1.33-.66-.67-.29-1-.42-1-.38-1.44-.55-.74-.21-1.11-.31-.93-.28-1.4-.38a24.43,24.43,0,0,0-3-.44h0a25,25,0,0,0-10.83,1.57,42.08,42.08,0,0,0-9.76,22.25c-.09.77-.21,1.53-.27,2.32A25.74,25.74,0,0,1,98,222.29C98.22,222.11,98.4,221.91,98.59,221.73Z"/><path class="cls-5" d="M173.67,239a42.48,42.48,0,0,0-.84-8.64,41.67,41.67,0,0,0-19.09-27.45,40.94,40.94,0,0,1,4.55,4.85,42.31,42.31,0,0,1,9.13,26.55c0,.21,0,.42,0,.63V235c0,.58,0,1.11,0,1.68-.19,36.73-29.09,66.45-65,67.28-.62,0-1.26,0-1.87,0s-1.26,0-1.88,0a105.74,105.74,0,0,1-58.22-19.05,106.93,106.93,0,0,0,23.27,14.38,104.85,104.85,0,0,0,41.19,9.36c.62,0,1.26,0,1.88,0h1.87c35.87-.83,64.78-30.55,65-67.28,0-.57,0-1.1,0-1.68v-.07Q173.67,239.3,173.67,239Z"/><path class="cls-6" d="M69.77,97.12a105.08,105.08,0,0,1,34-6.82C86.47,84.88,71,75.84,56.19,65.66l-.12.11a177,177,0,0,0-56,126.8c0,.69,0,1.37,0,2.06s0,1.47,0,2.21v.48h0C.56,153.09,29.18,112.57,69.77,97.12Z"/><path class="cls-7" d="M66.58,213.44c.38-1.07.79-2.13,1.25-3.16a109.1,109.1,0,0,1,28.63-36l-.21.06a67.27,67.27,0,0,0-31.72,15.1c-28.71,24.44-28.79,68.59-4.94,96.5a111.63,111.63,0,0,1-.78-49.71A97.56,97.56,0,0,1,66.58,213.44Z"/><path class="cls-8" d="M134.8,257.27a25.7,25.7,0,0,0,6.63-17.17,25.16,25.16,0,0,0-50.05-4.16c1.44-21.92,19.42-39.19,41.31-39.07.23,0,.45,0,.66,0a42.43,42.43,0,0,1,1.45,60.38Z"/><path class="cls-9" d="M154.35,98.41l1,.45c3,0,5.93,0,8.84-.16C160.92,98.74,157.61,98.66,154.35,98.41Z"/><path class="cls-10" d="M92.16,175.46s0,0,0,0l-.15.08,0,0a167.93,167.93,0,0,1-19.3,8.22c-.28.11-.58.23-.88.32h0a170.1,170.1,0,0,1-57.08,9.5c-4.87,0-9.68-.26-14.46-.68,0-.48.08-.95.13-1.42l-.23,0c0,.48,0,1,0,1.44,0,.68,0,1.37,0,2.05s0,1.47,0,2.21v.48c0,.51,0,1.05,0,1.56a113.53,113.53,0,0,0,.85,14.37s0,0,0,0a169.21,169.21,0,0,0,53.58-13.46c.1,0,.17-.08.27-.11A172.58,172.58,0,0,0,95.8,174.76l0,0a.07.07,0,0,0,.05,0c1.3-1.08,2.58-2.16,3.84-3.28C97.23,172.84,94.72,174.2,92.16,175.46Z"/><path class="cls-11" d="M164.9,107.31a176.27,176.27,0,0,1-21.52,29.4,174.75,174.75,0,0,1-33.6,28.8s-.06,0-.08,0c-.84.51-1.69,1-2.52,1.55-.41.25-.82.51-1.24.79l-1.42,1c-1.47.89-3,1.76-4.46,2.59A176.29,176.29,0,0,0,136,127.87a175.6,175.6,0,0,0,13.48-28.76A105.08,105.08,0,0,1,164.9,107.31Z"/><path class="cls-12" d="M108.07,129.11s0,0-.06,0a.52.52,0,0,1-.17,0l0,0a167.66,167.66,0,0,1-20.83,2c-.3,0-.62,0-.94,0h0a170,170,0,0,1-57.27-8.28c-1.6-.52-3.18-1.09-4.76-1.66a10.23,10.23,0,0,1-1.63,4.38c-.25,1-.71,2-1,2.8-1.34,4.17-3.34,7.74-6.81,10.36a169.13,169.13,0,0,0,50.25,2.43l.28,0a170.24,170.24,0,0,0,46.62-11.62h0l.06,0c1.56-.64,3.1-1.28,4.63-2C113.68,128.15,110.88,128.68,108.07,129.11Z"/><path class="cls-13" d="M69.37,299.1a109,109,0,0,1-62.7-84.53.52.52,0,0,1,0-.17l-1-15.69c0-.51,0-1,0-1.56v-.48c0-.74,0-1.46,0-2.21s0-1.37,0-2.05A177,177,0,0,1,61.7,65.6a171.23,171.23,0,0,1,97.38-45.28l-.28-.39A171.08,171.08,0,0,0,56.07,65.77a177,177,0,0,0-56,126.8c0,.69,0,1.37,0,2.06s0,1.47,0,2.21v.48c0,.51,0,1,0,1.56l1,15.68a.47.47,0,0,0,0,.17,109,109,0,0,0,62.7,84.53,104.85,104.85,0,0,0,41.19,9.36c.62,0,1.26,0,1.88,0h1.87c1.13,0,2.24-.08,3.36-.16-.5,0-1,0-1.48,0A105.11,105.11,0,0,1,69.37,299.1Z"/><path class="cls-14" d="M182.48,26.46l-1.45,0C85.34,26,7.37,104.44,6.87,201.77c0,3.45.08,6.88.25,10.29,5.72-92.51,81.52-165.52,173.8-165h.35C181.62,40.19,182.16,33.35,182.48,26.46Z"/><path class="cls-15" d="M253.51,69.05a67.55,67.55,0,0,0-29.66-38.88,13.13,13.13,0,0,0-.09-1.54q-.07-.91-.21-1.8A25.06,25.06,0,0,0,188.67,7.58L193.45,15l-17,4.41a126,126,0,0,0-17.46.55s5.28,39.72-10.25,78.66c19.32,1.48,40.43-2.69,47.14-4.17A170.65,170.65,0,0,0,253.51,69.05Z"/><path class="cls-16" d="M222,33.05a26,26,0,0,1-26,26.12,25.4,25.4,0,0,1-13.69-4.06,26.37,26.37,0,0,1-12-22.32,26.74,26.74,0,0,1,1.57-8.91,23.42,23.42,0,0,1,1.3-3A26,26,0,0,1,183.64,10a22,22,0,0,1,2.1-1.09,25.63,25.63,0,0,1,10.55-2.21,26,26,0,0,1,25.35,21.92c.09.61.16,1.22.22,1.84S222,31.47,222,32C222,32.35,222,32.7,222,33.05Z"/><path class="cls-17" d="M224,31.22a25.38,25.38,0,0,1-25.31,25.46,24.86,24.86,0,0,1-13.33-4A25.72,25.72,0,0,1,173.63,31a26.17,26.17,0,0,1,1.53-8.68,22.81,22.81,0,0,1,1.27-2.92A25.39,25.39,0,0,1,186.6,8.7a19.64,19.64,0,0,1,2-1,24.89,24.89,0,0,1,10.28-2.16,25.29,25.29,0,0,1,24.7,21.37c.1.59.17,1.18.22,1.79s.09,1,.09,1.54C224,30.54,224,30.88,224,31.22Z"/><path class="cls-9" d="M218.46,31.19a19.84,19.84,0,0,1-19.77,19.9A19.41,19.41,0,0,1,188.26,48a20.27,20.27,0,0,1-7.94-23.78,18.61,18.61,0,0,1,1-2.29,19.84,19.84,0,0,1,7.95-8.33,16.08,16.08,0,0,1,1.6-.82,19.42,19.42,0,0,1,8-1.69,19.78,19.78,0,0,1,19.31,16.7c.07.46.13.92.17,1.4a12.09,12.09,0,0,1,.07,1.21C218.46,30.66,218.46,30.92,218.46,31.19Z"/><path class="cls-18" d="M194.89,17c2,2,1.29,6.19-1.68,9.29a10.71,10.71,0,0,1-3.42,2.41c-2.17.93-4.34.82-5.66-.49a3.75,3.75,0,0,1-.94-1.58A4.18,4.18,0,0,1,183,26a7.08,7.08,0,0,1,.61-3.79c.09-.21.18-.41.29-.61A11,11,0,0,1,185.8,19c2.66-2.77,6.2-3.76,8.38-2.47a3.28,3.28,0,0,1,.31.2,2.31,2.31,0,0,1,.24.2Z"/><path class="cls-19" d="M215.75,30.63a7.68,7.68,0,0,0-.06-1.07,12.56,12.56,0,0,0-.15-1.25,17.75,17.75,0,0,0-8.83-12.63,17.89,17.89,0,0,1,5.85,10.54c.06.41.11.82.14,1.25a7.68,7.68,0,0,1,.06,1.07,5.7,5.7,0,0,1,0,.71,17.62,17.62,0,0,1-17.56,17.67,17.24,17.24,0,0,1-8.31-2.22,18,18,0,0,0,2,1.56A17.26,17.26,0,0,0,198.21,49a17.62,17.62,0,0,0,17.57-17.67A5.7,5.7,0,0,0,215.75,30.63Z"/><polygon class="cls-20" points="344.21 210.52 365.23 210.63 378.02 118.89 357 118.78 344.21 210.52"/><path class="cls-20" d="M517,166a7.23,7.23,0,0,0-1-.91l-.14-.08,2.74-3.39L552,119.93l-18.83-.09a9.42,9.42,0,0,0-3.32.59,16.68,16.68,0,0,0-3.2,1.58,21.79,21.79,0,0,0-2.95,2.26,23.12,23.12,0,0,0-2.47,2.62l-22,27.41h0l-15.46,19.12,7.5-53.8-20.94-.11-12.8,91.74,20.95.11,22.7-28.14,11.05,21.07a17.29,17.29,0,0,0,4,5.31,9.06,9.06,0,0,0,6.07,2l18.84.1-23.29-44.52A6.14,6.14,0,0,0,517,166Z"/><path class="cls-20" d="M256.13,138a25.2,25.2,0,0,1,19.36,8.9L279.26,122a49.5,49.5,0,0,0-20.18-4.71c-28-.65-54,19.87-57.72,45.9s16.28,47.25,44.43,47.25a57.8,57.8,0,0,0,20.63-3.9l3.78-24.9a33,33,0,0,1-21.45,8.06c-15.57-.09-26.6-11.84-24.53-26.24S240.62,137.69,256.13,138Z"/><path class="cls-20" d="M436.12,138a25.2,25.2,0,0,1,19.35,8.9L459.24,122a49.5,49.5,0,0,0-20.18-4.71c-28-.65-54,19.87-57.72,45.9s16.29,47.25,44.43,47.25a57.8,57.8,0,0,0,20.63-3.9l3.78-24.9a32.93,32.93,0,0,1-21.45,8.06c-15.57-.09-26.6-11.84-24.53-26.24S420.6,137.69,436.12,138Z"/><polygon class="cls-20" points="311.28 118.51 290.33 118.4 277.54 210.14 334.75 210.44 337.48 190.84 301.22 190.66 311.28 118.51"/><path class="cls-20" d="M604.91,164.61c-5.3-6.18-12.63-8.41-19.08-10.39-8.2-2.5-10.1-3.6-10.71-6.18-.37-1.59-1-4.25,3.66-6.53,5.68-2.75,14.37-2.64,18,2.67l15.34-14.05C602,117.62,582.66,116.64,569.73,123c-12,5.86-17.66,17.28-14.72,29.8,3.44,14.71,16.29,18.63,24.79,21.23,3.77,1.15,8.05,2.46,9.44,4.08,2.65,3.09,2.26,4.86,2.14,5.45-.56,2.57-3.16,6.06-7.24,8-7.12,3.31-18.14.07-23.55-10.13l-1.31-3.2-15.81,14.33a26.6,26.6,0,0,0,1.66,3,39.22,39.22,0,0,0,32.33,17.31,35.73,35.73,0,0,0,15-3.22c10.18-4.73,17.15-12.64,19.12-21.71C613.3,179.9,610.94,171.64,604.91,164.61Z"/><path class="cls-21" d="M245.6,279.87H234.77l-3.26-10.18h-17l-3.27,10.18h-10.3L216.5,234.2H230ZM223,243.07l-5.87,18.27h11.68Z"/><path class="cls-21" d="M264.71,279.87H249.38V234.2h15.33q10.91,0,17.29,6.33t6.46,16.5q0,10.19-6.46,16.51T264.71,279.87ZM259.82,243v28.06h4.37q6.33,0,9.85-3.69T277.57,257q0-6.64-3.53-10.34T264.19,243Z"/><path class="cls-21" d="M310,270.86l11.74-36.66H332l-15.53,45.67H302.94L287.35,234.2h10.9Z"/><path class="cls-22" d="M366.55,279.87H335.82V234.2h30.73V243H346.26v9.46h17.88V261H346.26v10.05h20.29Z"/><path class="cls-23" d="M397.22,261.86l11.94,18H397l-10.57-16.64h-3.72v16.64H372.23V234.2h17.94a16.1,16.1,0,0,1,11.29,4.11A13.45,13.45,0,0,1,406,248.75a13.87,13.87,0,0,1-8.81,13.11Zm-9.4-19.38h-5.15v12.46h5.15a9,9,0,0,0,5.68-1.63,5.46,5.46,0,0,0,2.09-4.56,5.53,5.53,0,0,0-2.12-4.6A8.92,8.92,0,0,0,387.82,242.48Z"/><path class="cls-24" d="M432.65,279.87H422.14V243H409v-8.8h36.73V243H432.65Z"/><path class="cls-24" d="M460.83,279.87H450.39V234.2h10.44Z"/><path class="cls-24" d="M484.05,280.58a27.7,27.7,0,0,1-16.63-5v-10.9a27.54,27.54,0,0,0,7.11,5.16,18.49,18.49,0,0,0,8.81,2.22,11.74,11.74,0,0,0,5.67-1.18,4,4,0,0,0,1.57-5.67,4.75,4.75,0,0,0-1.92-1.6,23.83,23.83,0,0,0-2.48-1.11c-.77-.28-1.87-.65-3.33-1.11s-2.6-.84-3.43-1.14a59.15,59.15,0,0,1-5.67-2.55,11.24,11.24,0,0,1-4.41-4.4,13.32,13.32,0,0,1-1.66-6.75q0-6.47,4.83-9.72a19.87,19.87,0,0,1,11.68-3.33,29.57,29.57,0,0,1,14.87,3.85V247.7a21.79,21.79,0,0,0-7-4.11,20.29,20.29,0,0,0-7.44-1.76,9.7,9.7,0,0,0-4.83,1.08,3.38,3.38,0,0,0-1.89,3.1,3.86,3.86,0,0,0,2.19,3.29,24.88,24.88,0,0,0,6.16,2.45,50.35,50.35,0,0,1,6.92,2.28,12.93,12.93,0,0,1,6.1,4.7,13.3,13.3,0,0,1,2.31,7.89q0,7.11-5.15,10.51A22,22,0,0,1,484.05,280.58Z"/><path class="cls-24" d="M517.78,279.87H507.34V234.2h10.44Z"/><path class="cls-24" d="M555.1,263.82V234.2h9.66v45.67H555.1l-20-28.45v28.45h-9.66V234.2h9.59Z"/><path class="cls-24" d="M594.25,280.58a23.36,23.36,0,0,1-16.64-6.39q-6.79-6.39-6.79-17.16,0-10.36,6.59-17t17.75-6.59a30.7,30.7,0,0,1,14.61,3.39v10.64a21,21,0,0,0-6.36-3.56,20.8,20.8,0,0,0-7.08-1.34q-6.84,0-10.76,3.69T581.65,257a15.26,15.26,0,0,0,3.59,10.18,12,12,0,0,0,9.53,4.24,15.66,15.66,0,0,0,7.17-1.44v-8.22H591.57v-8.54h20.55v21.2A27.34,27.34,0,0,1,594.25,280.58Z"/></g></g></g></svg>