<svg xmlns="http://www.w3.org/2000/svg" xmlns:xlink="http://www.w3.org/1999/xlink" viewBox="0 0 131.06 132.3"><defs><style>.cls-1{fill:none;}.cls-2{fill:#f7941d;}.cls-3{clip-path:url(#clip-path);}.cls-4{fill:#c7c8ca;}.cls-5{fill:#414042;}</style><clipPath id="clip-path"><path class="cls-1" d="M86.84,84.06s-1.5-3.47-23.61-3.47S9.84,94.15,9.84,94.15c-14.48,46.87,81.38,46.06,108,21.71s-8.5-36.11-8.5-36.11Z"/></clipPath></defs><g id="Layer_2" data-name="Layer 2"><g id="Layer_1-2" data-name="Layer 1"><path class="cls-2" d="M110.58,70.88A48.74,48.74,0,1,1,61.85,22.15a48.74,48.74,0,0,1,48.73,48.73"/><g class="cls-3"><path class="cls-4" d="M108.43,74A48.8,48.8,0,1,1,59.63,25.3,48.77,48.77,0,0,1,108.43,74"/></g><path class="cls-5" d="M5,97.82c.49-.28.94-.51,1.24-.66h0c10.46-5.12,21.8-9.67,32.6-12a131.47,131.47,0,0,1,27.64-3.29c14.18,0,20.21,3.29,20.21,3.29s33.4-7.34,44.38-10.29c-11.52,2,.13,0,0,0-3.7.61,0,0-14.62,2.55-15.36,2.68-29.76,5.27-29.76,5.27a82.16,82.16,0,0,0-21.93-3.52c-1.18,0-2.36,0-3.53.13-10.87.84-27,3.44-54.64,16.36h0l-.36.17v0c-1.14.66-4.51,2.68-4.58,3.42"/><path class="cls-5" d="M.49,98.45a59.69,59.69,0,0,1,5.84-3.91c19.1-11.78,28-17,27.56-29.15C33.43,51.5,11.5,50.11,11.5,50.11l6.15-4.43s1.27-3.91,3.12-5S28,38.22,28,38.22s.86,28,32.88,28.25h.34C79.2,66.47,97.36,54,97.36,54a159.74,159.74,0,0,1-22.09,8.5,41.31,41.31,0,0,1-11.8,1.69c-8.72,0-17.1-2.63-22.63-7.09-8-6.49-11.19-15.6-8.41-20.16S43,31.19,48.33,27A14.84,14.84,0,0,0,51.08,24c1.87-1.19,6.5-4.19,7.08-4.77.74-.74,3.69-9.27,3.69-9.27l-5,8.53-3.5,1.86A117.12,117.12,0,0,0,60,6.1S54,16.52,48.87,22.62,34.2,31.34,34.2,31.34a71.19,71.19,0,0,1,5-8.87c2-2.63,9-3.71,10.58-5.25S56.05,0,56.05,0L48,15.83s-.54.92-5.48,2.47-5.1,2.93-7.1,6.48c-1.89,3.33-8.09,10.44-15.75,12.82-4.48,1.39-4.22,6.13-7.26,8.34-4.58,3.31-10.09,4.36-9,5.86s7.43,1.14,11.43,2c8.73,1.91,17.69,5.24,16.52,14.67C30,79.87,19.69,84.37,6.87,91.82l-.11.07-.63.37h0L0,95.93"/><path class="cls-5" d="M37.44,87.87H53.78l.36.36v5.69c0,.65-.4,1-1.21,1H42.28a1.83,1.83,0,0,0-1.94,1.58v19.12a1.86,1.86,0,0,0,1.21,1.33h4.24a.64.64,0,0,0,.73-.73V104.44c.17-.13.3-.22.73-.58h7.13a.85.85,0,0,1,1,1v18.27c0,.61-.16,1-.48,1.09h-16c-2.94-.71-5-2-6-3.75a8.7,8.7,0,0,1-1.33-3.87V95.13a7.42,7.42,0,0,1,2.66-5.44,6.07,6.07,0,0,1,3.27-1.82"/><path class="cls-5" d="M65.4,87.87H80.89l.36.36v5.69a.81.81,0,0,1-.48.85h-11c-1.29.37-1.93,1.06-1.93,2.06v2.54c0,1.34,1.24,2,3.63,2.54.6.13,3.18.69,7.62,1.82,2.47.62,3.27,3.48,3.27,6.53v5.09q0,6-5.2,8.23l-3,.6H60.44a1.26,1.26,0,0,1-1.09-.72V117.4l.7-.46.87,0H71.57c1.29-.26,1.94-.91,1.94-1.94v-3a2.11,2.11,0,0,0-1.58-2.18c-7.26-1.53-10.28-2.91-10.89-3.27-1.56-.91-2.06-3-2.06-5.57v-5.2c0-3.32,1.66-5.79,5-7.38Z"/><path class="cls-5" d="M86.6,87.87h23.7c.48,0,.73.33.73,1v5.69a1,1,0,0,1-1.09,1.09H96.5l-.36.36v6.54a.88.88,0,0,0,.36.72h10.41a.83.83,0,0,1,.49.85v6.29a.75.75,0,0,1-.85.85H96.38l-.24.24v12.35l-.36.36H86.46c-.26,0-.42-.56-.49-1.69L86.09,89v-.18c.26-.43.37-.68.5-.91"/></g></g></svg>