<svg xmlns="http://www.w3.org/2000/svg" viewBox="0 0 612.09 308.93"><defs><style>.cls-1{isolation:isolate;}.cls-2{fill:#fff;}.cls-3{mix-blend-mode:overlay;opacity:0.4;}</style></defs><g class="cls-1"><g id="Layer_2" data-name="Layer 2"><g id="Logo"><polygon class="cls-2" points="344.18 210.66 365.19 210.76 377.98 119.03 356.97 118.92 344.18 210.66"/><path class="cls-2" d="M517,166.11a7.84,7.84,0,0,0-1-.9.57.57,0,0,0-.13-.08l2.74-3.4L552,120.07l-18.83-.1a9.67,9.67,0,0,0-3.32.6,15.86,15.86,0,0,0-3.2,1.58,21.18,21.18,0,0,0-3,2.26A24.05,24.05,0,0,0,521.2,127l-22,27.42h0l-15.45,19.12,7.5-53.8-20.95-.11-12.79,91.74,20.95.11,22.7-28.14,11,21.07a17.31,17.31,0,0,0,4,5.31,9,9,0,0,0,6.07,2l18.83.1L517.83,167.3A7,7,0,0,0,517,166.11Z"/><path class="cls-2" d="M256.1,138.11a25.18,25.18,0,0,1,19.35,8.9l3.77-24.83A49.42,49.42,0,0,0,259,117.47c-28-.65-54,19.87-57.71,45.9s16.28,47.25,44.43,47.25a57.85,57.85,0,0,0,20.63-3.9l3.78-24.91a32.85,32.85,0,0,1-21.45,8.06c-15.57-.08-26.6-11.83-24.53-26.23S240.59,137.83,256.1,138.11Z"/><path class="cls-2" d="M436.08,138.11a25.18,25.18,0,0,1,19.35,8.9l3.78-24.83A49.5,49.5,0,0,0,439,117.47c-28-.65-54,19.87-57.72,45.9s16.28,47.25,44.43,47.25a57.8,57.8,0,0,0,20.63-3.9l3.78-24.91a32.85,32.85,0,0,1-21.45,8.06c-15.57-.08-26.6-11.83-24.53-26.23S420.57,137.83,436.08,138.11Z"/><polygon class="cls-2" points="311.25 118.65 290.3 118.54 277.51 210.28 334.71 210.57 337.45 190.98 301.19 190.8 311.25 118.65"/><path class="cls-2" d="M604.88,164.75c-5.31-6.18-12.63-8.42-19.08-10.39-8.2-2.5-10.11-3.6-10.71-6.18-.37-1.59-1-4.26,3.66-6.53,5.68-2.76,14.37-2.65,18,2.67l15.34-14c-10.08-12.51-29.45-13.49-42.38-7.18-12,5.86-17.65,17.28-14.71,29.8,3.44,14.71,16.28,18.63,24.78,21.22,3.77,1.16,8,2.46,9.45,4.09,2.65,3.09,2.26,4.86,2.14,5.44-.56,2.58-3.17,6.06-7.24,8-7.13,3.31-18.14.06-23.55-10.13l-1.31-3.2L543.44,192.6a26.1,26.1,0,0,0,1.66,3A39.19,39.19,0,0,0,577.43,213a35.73,35.73,0,0,0,15-3.22C602.6,205,609.56,197.09,611.54,188,613.26,180,610.9,171.77,604.88,164.75Z"/><path class="cls-2" d="M245.56,280H234.73l-3.26-10.17h-17L211.18,280H200.87l15.6-45.66H230ZM223,243.21l-5.87,18.26H228.8Z"/><path class="cls-2" d="M264.68,280H249.35V234.34h15.33q10.89,0,17.29,6.32t6.46,16.51q0,10.17-6.46,16.51T264.68,280Zm-4.89-36.86V271.2h4.37q6.31,0,9.85-3.69t3.52-10.34q0-6.66-3.52-10.34t-9.85-3.69Z"/><path class="cls-2" d="M310,271l11.74-36.66H332L316.48,280H302.91l-15.59-45.66h10.89Z"/><path class="cls-2" d="M366.52,280H335.79V234.34h30.73v8.8H346.23v9.46h17.88v8.55H346.23V271.2h20.29Z"/><path class="cls-2" d="M397.18,262l11.94,18h-12.2l-10.56-16.63h-3.72V280H372.2V234.34h17.94a16.09,16.09,0,0,1,11.29,4.11A13.43,13.43,0,0,1,406,248.88,13.88,13.88,0,0,1,397.18,262Zm-9.39-19.38h-5.15v12.46h5.15a9,9,0,0,0,5.68-1.63,6.06,6.06,0,0,0,0-9.17A8.93,8.93,0,0,0,387.79,242.62Z"/><path class="cls-2" d="M432.61,280h-10.5V243.14H409v-8.8h36.74v8.8H432.61Z"/><path class="cls-2" d="M460.8,280H450.36V234.34H460.8Z"/><path class="cls-2" d="M484,280.72a27.68,27.68,0,0,1-16.63-5V264.8A27.54,27.54,0,0,0,474.5,270a18.47,18.47,0,0,0,8.8,2.21A11.91,11.91,0,0,0,489,271a3.84,3.84,0,0,0,2.15-3.59,3.8,3.8,0,0,0-.58-2.09,4.92,4.92,0,0,0-1.93-1.59,22.09,22.09,0,0,0-2.48-1.11q-1.14-.42-3.33-1.11t-3.42-1.14c-2-.79-3.89-1.63-5.68-2.55a11.21,11.21,0,0,1-4.4-4.4,13.35,13.35,0,0,1-1.66-6.75q0-6.46,4.82-9.73a20,20,0,0,1,11.68-3.32A29.63,29.63,0,0,1,499,237.47v10.37a21.79,21.79,0,0,0-7-4.11,20.34,20.34,0,0,0-7.44-1.76,9.76,9.76,0,0,0-4.83,1.07,3.39,3.39,0,0,0-1.89,3.1,3.87,3.87,0,0,0,2.18,3.3,25.55,25.55,0,0,0,6.17,2.45,50.35,50.35,0,0,1,6.92,2.28,12.9,12.9,0,0,1,6.09,4.7,13.22,13.22,0,0,1,2.32,7.89q0,7.11-5.15,10.5A21.91,21.91,0,0,1,484,280.72Z"/><path class="cls-2" d="M517.75,280H507.31V234.34h10.44Z"/><path class="cls-2" d="M555.07,264V234.34h9.65V280h-9.65l-20-28.44V280h-9.65V234.34H535Z"/><path class="cls-2" d="M594.21,280.72a23.37,23.37,0,0,1-16.64-6.39q-6.78-6.39-6.78-17.16,0-10.38,6.59-17t17.74-6.59A30.74,30.74,0,0,1,609.74,237v10.63a21.49,21.49,0,0,0-6.36-3.55,20.8,20.8,0,0,0-7.08-1.34q-6.85,0-10.76,3.69t-3.92,10.73a15.21,15.21,0,0,0,3.59,10.18,12,12,0,0,0,9.52,4.24,15.68,15.68,0,0,0,7.18-1.44v-8.22H591.54v-8.54h20.55v21.2A27.37,27.37,0,0,1,594.21,280.72Z"/><path class="cls-2" d="M171.63,86.45c-1.28-.27-20.91,12.77-20.91,12.77l-.73,13-11.1,12.86-8.83-2.18-2-22.2L133.73,84l9.49-11.78,10.14-3.84,17,1.37"/><path class="cls-2" d="M175,239.18a41.09,41.09,0,0,0-.58-7.13,14.87,14.87,0,0,0-.26-1.51,41.08,41.08,0,0,0-4-11.2,41.61,41.61,0,0,0-4.35-6.73,41.07,41.07,0,0,0-23.2-14.6h0a39.47,39.47,0,0,0-8-1c-.2,0-.43,0-.65,0a5.58,5.58,0,0,0-.71,0,40,40,0,0,0-18.82,4.88,41,41,0,0,0-11.63,9.4A42.07,42.07,0,0,0,94.59,226a43.92,43.92,0,0,0-1.71,7.87c-.1.76-.22,1.53-.28,2.31A25.84,25.84,0,0,1,96,226.84a26.36,26.36,0,0,1,3.3-4.35c.17-.19.36-.38.55-.57l.58-.57a27.17,27.17,0,0,1,9.18-5.41,25.32,25.32,0,0,1,10.13-1.28h0a24.6,24.6,0,0,1,3,.45c.47.1.94.24,1.41.37l1.12.31c.49.18,1,.35,1.42.55s.7.27,1,.42.9.44,1.33.68.69.36,1,.55.73.45,1.06.68c.51.32,1,.67,1.46,1,.13.12.26.21.41.33A24.57,24.57,0,0,1,141,232a26.27,26.27,0,0,1,.17,14.84,26.84,26.84,0,0,1-1.85,4.72,30.24,30.24,0,0,1-9,10.67c-9.47,7.07-22.77,9.11-34,6.25a40.5,40.5,0,0,1-18.79-10.89l-.17-.19c-.71-.71-1.38-1.45-2-2.22,0,0,0,0,0-.06q-.81-1-1.56-2c-.24-.32-.49-.67-.73-1-.37-.52-.72-1.06-1.08-1.61-.5-.8-1-1.63-1.43-2.47l-.24-.42a42.9,42.9,0,0,1-4.74-15.66,36.91,36.91,0,0,1-.18-3.8,42.36,42.36,0,0,1,3.72-17.64c.52-1,1-2,1.56-3a111.22,111.22,0,0,1,20.61-27.28c2.07-2,4.24-3.93,6.48-5.77s4.76-3.73,7.27-5.45a4.16,4.16,0,0,1,.45-.32c.47-.33,1-.65,1.43-.95s.83-.55,1.24-.8c.83-.52,1.67-1,2.52-1.55,0,0,0,0,.07,0q3.84-2.53,7.55-5.29a172.44,172.44,0,0,0,26.09-23.55c1.19-1.31,2.31-2.68,3.45-4a43.06,43.06,0,0,1-8-23.46c-.83-21.19,18.59-39.14,38.77-39,14.68.07,26.72,8.43,33.2,20.44a171,171,0,0,0,43.15-21.31,67.54,67.54,0,0,0-29.69-38.92,13.41,13.41,0,0,0-.08-1.55c0-.61-.13-1.2-.22-1.79A25.33,25.33,0,0,0,200.19,5.43,24.9,24.9,0,0,0,189.9,7.59a21.8,21.8,0,0,0-2,1.05A168.26,168.26,0,0,0,157.17,0a173.41,173.41,0,0,1,3.1,19.89A170,170,0,0,0,107.9,32.82a165.7,165.7,0,0,0-19-6.7c-1,5.66-1.74,11.43-2.2,17.27a163,163,0,0,0-19.75-3.25q-.8,8.18-.85,16.55c0,.38,0,.74,0,1.12-3.19-.19-6.39-.3-9.64-.31s-6.71.06-10,.25c0,1,0,2.08,0,3.11,0,5,.15,10,.54,14.89A165.38,165.38,0,0,0,29.52,78.2a171,171,0,0,0,2,17.82,3.28,3.28,0,0,0-.27.38c-5.44,1.37-10.79,3-16,4.9v0a171.15,171.15,0,0,0,3.27,17.37,129.06,129.06,0,0,0-12.1,5.63,130.49,130.49,0,0,0,3.78,15.18c-5.74,15.7-8.69,35.69-9,53.23,0,.69,0,1.37,0,2.06s0,1.47,0,2.21v.48c0,.51,0,1.05,0,1.56A114,114,0,0,0,2,213.43c.06.43.11.87.18,1.31a.47.47,0,0,0,0,.17A109.14,109.14,0,0,0,65,299.53a105.28,105.28,0,0,0,41.24,9.37c.62,0,1.25,0,1.87,0H110a66.6,66.6,0,0,0,59.57-40.8A69.37,69.37,0,0,0,175,241.57v-.38c0-.44,0-.86,0-1.3v-.08C175,239.6,175,239.39,175,239.18Z"/><path d="M103.87,306.82h-1.42c-.48,0-1,0-1.43,0A103.14,103.14,0,0,1,59.35,297c-1.56-.73-3.39-1.52-5.35-2.37-5.72-2.48-12.2-5.3-16.26-8.21l1.3-1.81c3.86,2.78,10.23,5.54,15.85,8,2,.85,3.83,1.65,5.4,2.39a101.22,101.22,0,0,0,40.8,9.54l1.38,0h2.3c35.67-.85,63.77-30.86,64-68.33v-1.7c0-.37,0-.55,0-.74a43.42,43.42,0,0,0-.82-8.7c-1.33-6.94-5.72-15-9.47-19.82l1.75-1.35c3.63,4.71,8.4,13,9.91,20.75a46.21,46.21,0,0,1,.85,9.12c0,.24,0,.49,0,.73v1.72c-.2,38.67-29.25,69.66-66.13,70.54Z"/><path d="M155.62,98.51l1,.46c3,0,5.94,0,8.85-.17C162.2,98.84,158.89,98.76,155.62,98.51Z"/><path class="cls-2" d="M166.18,107.42a176.62,176.62,0,0,1-21.54,29.43A174.84,174.84,0,0,1,111,165.68a.06.06,0,0,0-.07,0c-.85.51-1.69,1-2.52,1.55-.42.25-.83.51-1.24.8s-1,.62-1.43.94c-1.47.89-3,1.76-4.46,2.59A176.41,176.41,0,0,0,137.22,128a175.06,175.06,0,0,0,13.5-28.78A104.24,104.24,0,0,1,166.18,107.42Z"/><path d="M63.29,290.88l-3.37-3.94c-20.65-24.15-23.39-59-7.11-84.21A171,171,0,0,1,2.49,214.89l-.49.49-1.1-1,0-.38A114.44,114.44,0,0,1,0,199.42l0-1.93c0-.85,0-1.58,0-2.33l1.11-.33H0c0-.69,0-1.39,0-2.08l.06-1.08H.36a110.22,110.22,0,0,1,17.86-52.83l.4-.61.73.13a167.62,167.62,0,0,0,46.56,1.88l.4,1.07-.11-1.11a168.68,168.68,0,0,0,41.12-9.53,167.15,167.15,0,0,1-19.09,1.71c-.28,0-.63,0-1,0a171.8,171.8,0,0,1-55.86-7.84L29.69,124l1.23-1.3A108.69,108.69,0,0,1,70.55,96.18,106,106,0,0,1,99.2,89.62c-13.19-4.79-26.53-12-42.46-23l.52-.76-.36-1.09.34,1-.77-.77.64-.78.88.53C75.92,77.13,90.5,84.69,105.27,89.33l6.24,2L105,91.5a103.49,103.49,0,0,0-33.63,6.76A106.11,106.11,0,0,0,33.79,123a167.17,167.17,0,0,0,53.42,7.21c.33,0,.62,0,.89,0a166.21,166.21,0,0,0,20.53-1.94l.43-.14.22,0c2.5-.38,5.18-.88,8.17-1.53l10.29-2.21-9.6,4.31c-1.54.69-3.09,1.34-4.66,2l-.23.08a171.14,171.14,0,0,1-46.82,11.66l-.29,0a169.48,169.48,0,0,1-46.46-1.77A108,108,0,0,0,2.55,192.12c4.59.38,8.93.57,13.24.59h.9a168.82,168.82,0,0,0,55.72-9.4c8.19-2.85,8.19-2.85,20.88-8.89,2.3-1.13,4.69-2.42,7.09-3.78l9.31-5.29L102.13,172l.27-.08-4,3.37A109,109,0,0,0,70,211c-.44,1-.83,2-1.19,3a96.93,96.93,0,0,0-7.75,22.68,111.5,111.5,0,0,0,.76,49.21Zm-4.22-93.12-2.3,3.13c-17.14,23.37-16.17,56.64,1.82,80.83a116.79,116.79,0,0,1,.31-45.49,99,99,0,0,1,7.87-23.06c.33-1,.76-2.06,1.23-3.13a112,112,0,0,1,25-33c-11.52,5.48-11.8,5.57-19.81,8.37a171,171,0,0,1-56.44,9.51h-.92c-4.4,0-8.84-.2-13.53-.59v.86c0,.72,0,1.43,0,2.15l0,2.1a110.18,110.18,0,0,0,.72,13.18,168.67,168.67,0,0,0,52.25-13.3l.27-.12Z"/><g class="cls-3"><path d="M183.78,26.49l-1.46,0C86.54,26,8.49,104.55,8,202c0,3.46.08,6.9.25,10.31,5.72-92.61,81.6-165.69,174-165.22l.35,0C182.92,40.23,183.46,33.38,183.78,26.49Z"/></g><path class="cls-2" d="M254.88,69.12A67.57,67.57,0,0,0,225.19,30.2a13.53,13.53,0,0,0-.08-1.55c-.06-.61-.13-1.2-.22-1.79A25.33,25.33,0,0,0,200.16,5.47,24.87,24.87,0,0,0,190,7.59L194.76,15l-17,4.42a126.35,126.35,0,0,0-17.48.55s5.3,39.76-10.25,78.75c19.33,1.47,40.47-2.7,47.18-4.18A171,171,0,0,0,254.88,69.12Z"/><path d="M223.32,33.09a26.06,26.06,0,0,1-26,26.14,25.52,25.52,0,0,1-13.7-4.06,26.42,26.42,0,0,1-12-22.35,26.74,26.74,0,0,1,1.57-8.91,23.55,23.55,0,0,1,1.3-3A26.05,26.05,0,0,1,184.94,10a21,21,0,0,1,2.11-1.09A25.63,25.63,0,0,1,197.6,6.66,26,26,0,0,1,223,28.6c.09.61.16,1.22.22,1.84s.09,1.06.09,1.59C223.32,32.38,223.32,32.73,223.32,33.09Z"/><path class="cls-2" d="M225.3,31.25A25.41,25.41,0,0,1,200,56.74a24.93,24.93,0,0,1-13.35-4A25.78,25.78,0,0,1,174.92,31a26.17,26.17,0,0,1,1.53-8.68,23.77,23.77,0,0,1,1.27-2.93A25.43,25.43,0,0,1,187.9,8.71a19.87,19.87,0,0,1,2-1.06,25.06,25.06,0,0,1,10.29-2.16A25.34,25.34,0,0,1,225,26.88c.09.6.16,1.19.21,1.8a13.25,13.25,0,0,1,.09,1.54A8.92,8.92,0,0,1,225.3,31.25Z"/><path d="M219.8,31.22A19.87,19.87,0,0,1,200,51.14,19.41,19.41,0,0,1,189.57,48a20.1,20.1,0,0,1-9.14-17,20.31,20.31,0,0,1,1.19-6.79,18.61,18.61,0,0,1,1-2.29,19.89,19.89,0,0,1,8-8.34,16.08,16.08,0,0,1,1.6-.82,19.6,19.6,0,0,1,8-1.69,19.8,19.8,0,0,1,19.33,16.72c.07.46.12.92.17,1.4a9.81,9.81,0,0,1,.06,1.21A7.13,7.13,0,0,1,219.8,31.22Z"/><path class="cls-2" d="M196.2,17c2.05,2,1.29,6.2-1.68,9.29a10.6,10.6,0,0,1-3.42,2.42c-2.17.93-4.35.82-5.67-.49a3.75,3.75,0,0,1-.94-1.58,4.07,4.07,0,0,1-.16-.71,7,7,0,0,1,.62-3.79c.08-.2.18-.41.28-.61A11,11,0,0,1,187.1,19c2.67-2.78,6.21-3.76,8.39-2.48l.31.21a1.59,1.59,0,0,1,.24.2A1.07,1.07,0,0,1,196.2,17Z"/><path d="M98.22,175.41l-1.11-1.92c.27-.16,26.75-15.83,48.7-64.94,21.37-47.82,10.55-96.72,10.44-97.21l2.17-.5c.11.5,11.08,50.13-10.58,98.61C125.56,159.29,99.33,174.78,98.22,175.41Z"/><path d="M131.22,261.77,130,259.91a35.83,35.83,0,0,0,15.8-22.57c5.14-23.24-11.79-39.28-12-39.43l1.51-1.63c.18.16,18,17,12.64,41.46C147.93,238.25,145.72,252.34,131.22,261.77Z"/><path d="M9.68,141.62l-2.07-.83c19-46.66,45.14-74.06,63.7-88.83,20.17-16,35.61-20.95,36.26-21.14l.66,2.11C107.6,33.13,45.64,53.31,9.68,141.62Z"/></g></g></g></svg>